<svg width="287" height="178" viewBox="0 0 287 178" fill="none" xmlns="http://www.w3.org/2000/svg">
<path fill-rule="evenodd" clip-rule="evenodd" d="M75.2888 143.332C76.6485 144.904 78.6563 146.071 80.1969 147.509C81.8146 149.019 83.5704 150.339 85.1817 151.831C92.2899 143.143 102.027 137.816 110.463 130.607C114.462 127.189 117.408 122.553 119.564 117.795C120.669 115.356 121.486 112.845 122.125 110.247C122.413 109.077 122.694 107.91 122.882 106.724C123.11 105.287 123.169 105.165 124.139 104.043C124.556 103.561 125.364 102.151 126.181 102.306C126.869 102.437 128.127 104.531 128.562 105.048C130.652 107.535 132.678 110.098 134.879 112.489C138.246 116.148 141.311 119.748 144.437 123.625C150.832 131.559 157.73 139.027 164.691 146.491C165.207 147.045 166.411 148.668 167.153 148.887C168.054 149.152 169.52 148.046 170.428 147.427C172.621 145.935 174.348 144.088 176.223 142.238C179.88 138.628 182.356 133.561 184.022 128.74C185.019 125.854 185.668 122.863 186.697 119.987C187.126 118.788 188.098 117.315 187.604 116.271C187.457 115.96 186.522 115.133 186.192 115.07C185.802 114.995 185.151 115.53 185.016 115.493C183.721 115.138 184.44 113.783 183.67 113.054C183.233 112.641 181.013 112.701 180.35 112.474C177.927 111.643 175.753 110.057 173.462 109.11C163.87 105.148 154.162 101.293 145.882 94.822C143.735 93.1442 142.308 91.8832 139.746 90.7987C137.156 89.7027 134.553 88.725 131.911 87.7686C129.58 86.9249 127.237 86.1338 124.829 85.5291C122.225 84.875 118.531 84.0457 115.929 84.8882C110.82 86.5423 109.17 90.752 107.136 95.1929C104.383 101.201 101.055 106.887 97.4463 112.417C90.5049 123.057 82.0626 132.605 75.2888 143.332Z" fill="#CF6767"/>
<path fill-rule="evenodd" clip-rule="evenodd" d="M229.157 49.2651C229.438 49.1224 231.633 50.0158 232.001 50.1525C233.473 50.6985 234.859 51.6058 236.246 52.3439C235.183 53.637 234.12 54.9305 233.058 56.224C232.016 53.6692 230.678 51.5612 229.157 49.2651ZM228.432 65.1602C228.794 65.2009 225.741 72.5357 225.385 73.3593C224.088 76.3547 222.726 79.3209 221.412 82.3088C220.139 85.2043 218.523 87.868 216.896 90.5729C215.504 92.8862 214.073 96.4761 211.973 98.1895C213.299 92.3083 213.124 85.5459 216.926 80.6078C220.868 75.4884 224.765 70.4894 228.432 65.1602ZM75.2891 143.593C81.1791 134.266 88.5521 126.015 94.6941 116.854C98.1332 111.725 101.48 106.53 104.375 101.07C106.481 97.0986 107.79 91.432 111.042 88.3956C112.475 87.0579 114.006 85.7485 115.93 85.1492C118.561 84.3292 122.185 85.142 124.829 85.7904C129.756 86.9983 134.568 88.8743 139.235 90.8444C143.969 92.8426 148.007 96.4319 152.284 99.3156C156.872 102.409 161.838 104.663 166.978 106.636C171.453 108.354 175.435 110.82 179.887 112.549C180.774 112.894 182.584 112.843 183.328 113.293C184.13 113.776 183.814 115.205 184.788 115.732C185.227 115.97 185.373 115.108 185.71 115.122C186.123 115.139 186.499 115.623 186.896 115.93C188.514 117.178 187.523 118.01 186.882 119.728C184.794 125.324 183.672 131.018 180.74 136.302C178.33 140.645 174.88 144.536 170.818 147.411C170.2 147.849 168.186 149.544 167.46 149.431C166.808 149.33 165.479 147.594 165.028 147.123C162.983 144.984 161.113 142.683 159.069 140.541C155.91 137.23 152.869 133.83 149.804 130.474C146.245 126.578 143.096 122.164 139.89 118.001C138.416 116.086 136.518 114.526 134.879 112.75C132.676 110.363 130.652 107.796 128.562 105.309C127.93 104.557 126.87 102.632 125.887 102.654C125.198 102.67 123.984 104.292 123.624 104.8C122.285 106.689 122.291 110.1 121.625 112.458C120 118.207 117.07 123.823 113.052 128.259C109.056 132.671 103.938 135.809 99.212 139.355C94.0924 143.197 89.2421 147.129 85.182 152.092C83.5706 150.6 81.8148 149.28 80.1972 147.77C78.6562 146.332 76.6485 145.165 75.2891 143.593ZM151.106 169.98C149.961 169.992 148.021 170.696 146.997 170.272C150.036 166.91 152.826 164.025 156.67 161.562C160.66 159.005 164.636 156.471 168.51 153.744C176.319 148.248 182.062 141.73 185.324 132.577C186.164 130.22 186.727 127.748 187.342 125.325C187.673 124.02 188.333 117.916 189.452 117.389C190.115 117.076 195.106 120.584 195.897 121.021C197.746 122.044 199.601 122.836 201.513 123.636C205.622 125.357 209.857 126.669 214.214 127.764C219.438 129.078 222.996 126.905 226.231 122.799C229.903 118.141 232.953 112.886 236.31 107.994C237.837 105.769 239.101 103.548 240.228 101.094C240.966 99.4887 243.892 95.1568 242.881 93.4461C239.997 95.6423 238.959 100.009 236.994 102.95C234.545 106.615 231.785 110.07 229.323 113.732C227.253 116.81 225.141 120.541 222.083 122.755C219.392 124.701 216.837 124.103 213.942 123.228C210.433 122.168 206.795 121.645 203.357 120.33C199.635 118.907 196.114 116.889 192.483 115.243C190.791 114.475 188.764 114.039 187.169 113.082C185.794 112.258 185.999 111.823 185.898 110.067C185.78 108.019 185.645 105.97 185.554 103.921C185.493 102.543 186.238 100.676 185.732 99.6482C189.855 100.363 193.883 101.32 197.977 102.167C200.218 102.63 202.379 103.204 204.643 103.568C205.506 103.707 206.685 103.703 207.458 104.079C208.074 103.902 208.389 104.014 208.401 104.416C208.43 104.634 208.477 104.849 208.541 105.061C209.805 105.636 210.54 104.403 211.636 103.22C212.989 101.76 214.002 100.116 214.995 98.4002C217.214 94.5647 219.771 90.9573 221.825 87.0137C223.918 82.9936 225.618 78.6894 227.392 74.5185C229.02 70.692 230.063 66.5536 231.861 62.8177C232.664 61.1501 233.682 59.7711 234.87 58.3624C235.85 57.1999 237.359 54.6921 238.823 54.1581C239.21 54.0169 240.224 54.2541 240.663 54.2228C241.54 54.1602 242.321 53.8384 243.218 53.9088C245.16 54.0609 247.278 55.289 248.83 56.3687C247.827 57.2628 245.318 58.3494 247.12 59.9599C248.869 61.5233 249.835 58.7188 250.502 57.49C253.645 60.0706 253.19 63.6289 253.553 67.2752C253.743 69.1788 254.242 71.0535 254.564 72.9285C254.795 74.278 254.633 75.6738 254.699 77.0516C254.868 80.5527 255.22 83.9039 255.203 87.3559C255.185 91.0458 254.933 94.6092 254.638 98.2723C254.141 104.439 253.002 110.609 252.026 116.727C251.476 120.166 250.725 123.507 249.995 126.891C249.166 130.731 247.634 134.368 246.774 138.198C245.899 137.085 245.24 137.08 243.824 137.227C242.734 137.341 242.003 137.081 242.066 138.593C242.108 139.574 242.973 140.323 243.93 140.494C245.178 140.717 245.602 140.095 246.246 139.149C246.396 140.94 245.192 142.812 244.716 144.56C244.265 146.217 243.967 147.842 243.209 149.428C242.47 150.975 241.838 152.501 241.09 154.033C240.746 154.738 240.423 155.454 240.075 156.158C239.899 156.514 239.692 157.004 239.429 157.305C238.812 158.008 238.911 157.667 238.189 158.068C236.617 158.941 237.207 158.724 237.171 160.527C237.135 162.305 236.223 163.612 234.76 164.612C231.657 166.733 228.596 167.323 225.068 168.395C221.781 169.394 218.319 170.251 214.838 170.231C210.575 170.208 206.369 169.649 202.106 169.592C197.403 169.53 192.655 169.555 187.961 169.718C186.028 169.785 184.232 169.871 182.366 170.364C180.198 170.938 178.101 170.711 175.867 170.624C171.101 170.438 166.17 170.069 161.466 170.036C158.079 170.012 154.505 169.776 151.106 169.98ZM27.5121 171.828C26.6648 172.275 24.7654 172.092 23.9135 171.967C22.4129 171.749 22.2522 171.154 21.3 169.816C19.6613 167.511 18.3308 165.305 17.3667 162.636C15.5214 157.527 14.768 152.301 13.958 146.957C13.0576 141.019 14.7018 134.864 15.2899 128.967C15.4251 127.614 15.61 126.273 15.8237 124.93C15.9516 124.127 15.985 121.396 16.5133 120.701C17.5283 119.366 22.2483 120.443 24.104 120.564C29.2839 120.902 34.4978 120.981 39.6753 121.04C42.4359 121.071 45.2119 121.187 47.9451 121.208C49.2003 121.218 50.4276 121.156 51.6873 121.034C52.1087 120.993 52.5202 120.896 52.9447 120.873C54.398 120.792 54.2887 120.581 54.6644 121.868C55.3224 124.123 54.8161 126.991 54.9889 129.331C55.22 132.458 55.345 135.63 55.2878 138.763C55.2348 141.659 55.3335 144.548 55.2255 147.45C55.1803 148.652 55.0491 149.632 54.7321 150.78C54.3736 152.077 53.9792 155.109 53.0864 156.007C52.985 156.11 52.2261 155.871 52.0247 156.126C51.7144 156.518 51.7713 157.348 51.5582 157.601C50.8686 158.422 49.4433 158.487 48.4093 158.856C45.5722 159.867 42.9696 160.966 40.2957 162.33C37.9065 163.549 34.0544 164.586 32.618 166.991C31.9593 168.093 31.8705 169.547 31.2649 170.684C30.5753 171.979 31.9551 171.302 30.2655 171.828C29.5045 172.064 28.2921 171.828 27.5121 171.828ZM279.389 157.175C279.604 160.167 281.289 163.016 281.876 165.958C282.15 167.335 282.616 168.689 282.939 170.059C283.248 171.372 284.366 172.928 284.253 174.228C280.127 172.758 275.947 172.388 271.634 171.991C267.547 171.615 263.229 171.466 259.176 171.464C255.045 171.462 250.629 171.059 246.376 170.996C241.929 170.931 237.414 170.815 233.031 170.354C235.323 168.657 238.191 167.063 239.883 164.701C241.723 162.133 242.678 158.917 244.297 156.208C247.546 150.771 249.611 144.025 251.314 137.917C254.752 125.587 258.594 113.484 259.52 100.695C261.282 101.597 262.681 105.098 263.563 106.842C264.689 109.068 265.279 111.481 266.011 113.847C267.518 118.72 268.562 123.773 270.407 128.599C273.935 137.826 276.203 147.768 279.389 157.175ZM55.3992 85.3111C54.6361 90.8258 53.0359 96.4117 52.9745 101.993C52.9609 103.221 53.1689 104.584 52.9131 105.795C52.6397 107.088 51.7508 108.23 51.2376 109.459C50.423 111.409 48.3602 115.406 50.3496 117.058C50.3899 115.49 51.8249 113.499 52.5476 112.127C53.637 110.062 55.0683 108.173 56.2492 106.158C58.7212 101.941 61.4911 97.8144 64.6768 94.0969C67.7796 90.4757 71.3557 87.2635 74.6461 83.8154C75.6347 82.7793 83.5652 72.8075 83.8804 72.9469C81.4205 82.4331 77.2388 90.687 71.5162 98.6296C68.7104 102.523 65.3429 105.085 61.9273 108.384C59.083 111.131 53.7222 114.068 54.7056 118.569C50.2593 118.142 45.8422 117.459 41.3555 117.459C42.0933 111.78 42.6583 106.192 43.9756 100.606C45.471 94.2643 46.4839 87.7325 47.7494 81.3341C49.0408 74.8021 51.2313 68.4783 52.594 61.9586C53.8989 55.7155 55.0199 49.4836 55.9765 43.171C56.767 46.6688 56.4753 50.5107 56.7558 54.0795C57.0424 57.7257 57.0147 61.3048 56.9193 64.9724C56.7426 71.7847 56.0165 78.5148 55.3992 85.3111ZM36.1323 52.8321C36.1073 49.9162 35.5423 47.0397 35.368 44.1306C35.3144 43.2381 34.4256 37.1489 35.2546 36.831C35.9364 38.3174 36.0953 40.2195 36.7145 41.7791C37.3331 43.3372 38.1606 44.8215 38.7542 46.3904C40.0401 49.7891 40.4838 53.6349 40.6223 57.2483C40.9356 65.4215 41.0976 73.5763 40.5482 81.7495C40.3128 85.2527 40.1322 88.762 40.1966 92.2721C40.2674 96.1345 40.8589 99.4869 40.1406 103.318C39.4296 107.111 38.9829 110.889 38.746 114.738C38.5799 117.439 38.513 117.248 35.9357 117.058C34.0752 116.921 32.1962 117.067 30.3329 116.982C31.2041 106.454 31.3465 95.9036 32.7381 85.4156C33.4482 80.065 33.4671 74.6371 34.3491 69.3064C34.7874 66.6584 35.5228 64.0636 35.9454 61.4126C36.399 58.5662 36.1757 55.7005 36.1323 52.8321ZM224.601 46.2064C219.639 46.6363 214.362 48.1197 209.276 47.1402C210.114 46.8006 212.308 46.3323 211.321 44.9921C210.317 43.6294 208.625 45.3579 207.624 45.1794C207.006 45.0692 205.642 42.4886 205.262 41.9543C204.398 40.74 204.294 40.5284 202.741 40.2171C201.237 39.9161 200.896 40.2421 200.705 38.7464C200.486 37.0264 201.081 35.0926 201.022 33.3338C200.896 29.5473 199.674 26.2268 198.537 22.6643C203.367 23.7151 208.091 24.9613 213.03 25.6386C215.141 25.9282 218.426 26.5961 220.344 25.1609C220.843 24.7876 220.763 24.2837 221.171 23.8512C221.856 23.1254 223.125 22.3747 224.096 22.1679C230.07 20.8961 230.653 29.4128 227.659 32.5996C226.909 33.3982 225.866 33.7925 225.098 34.5243C224.073 35.5002 223.989 36.5282 223.84 38.0179C223.559 40.8113 223.94 43.6156 225.132 46.1709L224.601 46.2064ZM152.103 86.4132C150.339 86.7479 148.498 86.6714 146.73 86.9571C146.102 87.0585 144.218 87.4125 143.666 87.0453C142.823 86.4845 142.523 84.4277 142.124 83.4698C141.423 81.785 140.43 80.3155 139.761 78.6C137.028 71.5929 134.479 64.5579 131.174 57.7901C132.441 57.4608 133.413 57.4479 134.69 57.2778C136.021 57.1005 137.226 56.314 138.496 55.9759C139.702 55.6547 140.965 55.7366 142.16 55.363C142.819 55.1575 143.384 54.7002 144.033 54.5404C145.067 54.286 146.275 54.1373 146.89 54.8164C147.521 55.513 147.742 57.4229 148.085 58.3226C148.999 60.7196 150.061 63.0329 150.826 65.485C151.517 67.6966 152.173 69.8847 152.781 72.1164C153.424 74.4725 154.69 76.4143 155.461 78.665C156.047 80.3781 156.601 82.1294 156.689 83.956C156.774 85.7383 157.033 85.8518 155.251 86.1365C154.351 86.2801 152.949 86.8147 152.103 86.4132ZM36.064 169.83C35.6046 170.044 35.1715 170.015 34.7651 169.744C38.7475 168.062 42.6213 165.729 46.7759 164.575C50.6732 163.493 54.4612 162.2 58.2158 160.867C61.2666 159.784 64.0094 158.941 66.7676 157.035C68.4419 155.877 69.9292 154.576 71.0797 152.886C72.3605 151.003 72.6456 148.324 74.0326 146.629C75.905 148.685 78.1045 150.242 80.3197 151.876C81.086 152.441 82.9243 153.674 83.1865 154.548C83.5173 155.652 82.6312 156.708 82.1929 157.825C81.0704 160.686 80.5219 163.546 79.913 166.52C79.6689 167.712 79.1418 169.504 78.1626 170.003C77.271 170.457 74.6889 170.127 73.5793 170.043C67.7908 169.604 62.1049 169.155 56.2814 169.555C49.6916 170.007 42.6367 170.319 36.064 169.83ZM24.5023 116.817C23.4502 116.821 22.4225 116.689 21.3744 116.689C21.9794 113.864 20.565 110.208 20.0635 107.389C19.5024 104.234 19.0753 100.972 18.7011 97.7928C17.9124 91.0955 17.5551 84.4794 17.5449 77.7331C17.5352 71.2049 16.3468 65.2394 14.6822 58.9638C12.8948 52.2241 9.96768 46.1631 7.54752 39.6633C10.2022 41.0666 11.6718 44.3504 13.0667 46.8609C14.83 50.0351 16.0046 53.5497 16.7246 57.1132C18.1138 63.9875 19.6375 70.8825 21.2404 77.7454C22.9096 84.8912 23.8909 92.1027 25.8029 99.1901C26.7355 102.646 28.0034 106.899 28.0738 110.463C28.103 111.937 28.5473 115.025 27.8791 116.306C27.2542 117.504 25.8725 116.939 24.5023 116.817ZM183.304 107.951C183.359 108.685 183.411 109.383 183.542 110.108C182.084 110.094 180.239 108.582 178.989 107.903C177.467 107.076 175.942 106.164 174.453 105.333C171.578 103.728 168.315 102.67 165.245 101.352C161.719 99.8373 158.478 98.0071 155.106 96.1835C153.928 95.5466 145.463 91.8772 145.605 90.8748C147.464 90.8128 149.322 90.7511 151.181 90.6894C152.774 90.6364 155.242 90.9964 156.768 90.504C157.603 90.2339 158.542 89.2403 158.857 88.4622C159.169 87.6922 158.468 84.1507 158.876 83.925C160.956 86.0486 162.263 88.8713 164.123 91.1623C166.178 93.6944 168.834 95.173 171.761 96.5186C174.993 98.0047 178.338 99.1555 181.641 100.429C183.034 100.966 183.006 101.273 183.127 102.801C183.263 104.508 183.248 106.239 183.304 107.951ZM15.3526 172.176C11.849 172.552 8.25851 172.337 4.7276 172.63C3.44287 172.737 1.66177 172.896 2.95432 174.62C3.76828 175.706 6.37567 175.358 7.55835 175.433C10.7338 175.635 14.0958 175.527 17.2785 175.48C17.9485 175.47 18.689 175.271 19.3663 175.316C20.148 175.367 21.0842 175.929 21.7967 175.925C22.2359 175.922 22.3933 175.459 22.772 175.417C23.5971 175.324 24.4219 175.256 25.2539 175.257C37.8334 175.259 50.24 175.006 62.7882 174.993C68.7883 174.987 74.8848 174.883 80.8826 174.601C82.142 174.542 89.3146 174.8 89.116 172.532C89.0139 171.364 86.6729 171.199 85.8186 171.075C85.1856 170.983 84.5288 170.998 83.8945 170.964C82.2095 170.873 81.4714 171.279 81.8269 169.435C83.1751 162.442 85.5911 156.662 90.7529 151.634C94.9737 147.523 100.056 143.793 104.837 140.36C110.642 136.191 115.351 131.806 118.797 125.427C120.81 121.701 122.494 117.893 123.528 113.773C123.9 112.292 123.909 110.606 124.365 109.177C124.716 108.078 125.515 107.308 125.986 106.169C131.762 115.815 139.416 123.885 146.435 132.583C149.788 136.738 153.614 140.685 157.621 144.3C158.81 145.373 159.919 146.493 161.029 147.647C161.957 148.613 163.431 149.472 164.215 150.544C164.967 151.572 164.782 151.523 163.637 152.34C162.124 153.419 160.457 154.316 158.92 155.368C156.464 157.05 153.783 158.472 151.587 160.497C149.211 162.686 147.136 165.222 145.06 167.691C143.676 169.337 141.861 171.449 141.513 173.529C141.397 174.218 140.96 175.92 141.537 176.424C142.031 176.855 141.981 176.692 142.594 176.429C143.397 176.085 143.634 175.294 144.615 174.918C147.125 173.955 150.162 174.285 152.774 174.274C155.387 174.262 158.022 174.555 160.633 174.545C166.597 174.52 172.434 175.003 178.396 175.262C184.728 175.537 191.138 174.877 197.449 174.971C202.125 175.04 206.925 174.69 211.73 174.95C214.202 175.083 216.629 174.774 219.039 174.74C222.195 174.694 225.435 175.123 228.617 175.185C233.841 175.285 239 175.285 244.255 175.41C255.559 175.681 266.802 175.96 278.112 176.139C279.621 176.163 281.272 176.112 282.763 176.282C284.346 176.462 283.529 176.799 284.614 177.368C287.654 178.963 286.952 173.052 286.879 171.89C286.489 165.66 284.907 159.55 283.006 153.635C281.203 148.026 279.739 142.155 278.212 136.424C276.541 130.152 274.363 124.136 272.385 117.926C270.359 111.562 268.709 104.95 265.029 99.3084C264.19 98.0237 263.324 96.6411 261.975 95.831C260.464 94.9229 260.399 95.4533 260.4 93.7914C260.401 92.2261 260.304 90.1349 260.674 88.6413C261.008 87.2918 260.956 88.0919 261.708 87.1226C262.319 86.3343 262.959 85.7955 263.398 84.8382C266.094 87.5718 272.265 86.1293 274.87 84.1609C278.058 81.7516 280.486 77.687 281.376 73.8159C282.091 70.7073 281.214 64.7818 277.773 63.287C276.096 62.5582 269.935 62.0074 269.689 59.6324C269.562 58.4063 271.73 56.6824 272.23 55.6282C273.157 53.6753 274.048 51.0775 274.306 48.9367C274.809 44.758 272.912 40.0853 269.89 37.2626C264.346 32.0846 254.593 29.4272 247.462 32.7125C248.969 26.9562 249.878 21.9903 249.12 16.0025C248.466 10.844 245.422 7.95783 241.234 5.38836C234.087 1.00307 224.369 -0.727773 216.197 0.547331C214.34 0.837209 212.558 1.45881 210.839 1.95338C208.341 2.6719 205.351 2.4326 202.992 3.60003C201.282 4.44618 199.983 6.13187 198.482 7.25737C196.728 8.5713 195.271 10.5324 194.053 12.346C191.448 16.2243 192.466 23.4222 194.646 27.3153C195.114 28.1503 195.692 28.8532 196.465 29.423C197.271 30.016 198.499 30.2005 198.914 30.9696C199.977 32.9398 198.951 37.2049 198.81 39.3342C198.644 41.8068 199.894 43.6641 202.698 43.8612C204.32 43.9756 204.372 43.0346 205.148 44.9708C205.652 46.2257 206.109 47.5929 206.835 48.7434C208.333 51.1145 211.076 50.883 213.574 50.8189C216.466 50.7443 219.315 50.2873 222.209 49.9989C221.444 52.4477 219.352 54.3483 218.046 56.5298C216.28 59.4803 215.216 61.9261 214.929 65.3637C214.709 68.0048 215.184 70.0906 216.992 72.0562C217.74 72.8698 218.403 72.9099 218.217 73.8484C218.104 74.421 217.114 75.3656 216.764 75.8225C215.837 77.0314 214.761 78.1409 213.945 79.432C210.806 84.3994 209.879 91.9717 209.871 97.7542C209.871 98.0194 209.729 98.5832 209.846 98.8575C209.933 99.06 210.592 99.7015 210.601 99.7566C210.73 100.5 210.005 101.775 208.868 101.901C207.673 102.033 205.485 101.036 204.373 100.708C202.595 100.184 200.782 99.7969 199.008 99.2584C196.142 98.3888 193.289 97.6952 190.376 97.0137C189.059 96.7061 187.735 96.4496 186.414 96.1619C184.91 95.8344 184.211 95.2013 183.434 96.732C182.768 98.0456 183.182 98.2837 181.569 97.6218C179.966 96.9641 178.401 96.1489 176.836 95.4066C174.077 94.0978 170.791 92.9311 168.411 90.9988C164.441 87.7753 162.971 82.6417 159.171 79.2213C158.113 78.2689 157.482 78.252 156.813 76.9327C156.097 75.5206 155.727 73.7097 155.351 72.1908C154.692 69.531 154.222 66.8619 153.624 64.2045C152.879 60.8939 151.269 57.8958 150.094 54.7381C149.636 53.5079 149.399 51.9441 148.661 50.8385C148.465 50.5453 148.091 50.38 147.939 50.1374C147.413 49.3045 147.419 49.0757 147.283 48.0736C146.646 43.3913 143.851 45.8546 140.797 46.9283C139.51 47.3807 133.4 50.3147 135.733 52.2659C132.952 53.0729 128.497 52.6343 128.534 56.6204C128.554 58.6628 129.775 60.8476 130.431 62.7593C131.013 64.4567 131.576 66.1608 132.168 67.8555C133.463 71.5679 135.036 75.1693 136.3 78.8932C136.877 80.5903 137.352 82.3272 138.155 83.9289C138.862 85.3418 140.576 86.8993 140.858 88.4444C133.447 85.2822 126.59 80.7104 118.293 81.0018C114.661 81.1291 111.364 82.6562 109.358 85.8503C106.842 89.8538 105.188 94.3362 102.729 98.3767C93.7856 113.075 83.1188 126.428 73.3009 140.518C72.5468 141.601 71.577 142.625 71.3154 143.963C71.1447 144.836 71.4758 145.709 71.2711 146.547C70.8464 148.29 68.7004 150.466 67.2453 151.468C64.4561 153.388 59.9219 156.096 56.4413 155.856C58.6257 150.606 58.5965 144.854 58.4951 139.254C58.3985 133.935 57.8235 128.659 57.1411 123.394C56.9867 122.203 56.8522 121.099 56.5099 119.945C56.1171 118.62 55.5776 118.746 56.7543 117.555C58.5652 115.722 60.7193 114.213 62.545 112.357C66.4934 108.344 70.5403 105.198 73.6479 100.405C76.6033 95.8458 79.7213 91.1551 81.909 86.1627C84.1612 81.0235 85.0616 75.535 86.1795 70.0924C86.6332 67.8838 88.2876 65.4182 87.9552 63.1118C87.535 60.1971 86.1835 62.3195 85.6332 63.8881C83.9541 68.6764 80.0226 72.962 76.7662 76.8129C73.2479 80.9729 68.9449 84.4535 65.2725 88.4926C61.2735 92.8916 58.5342 97.9472 54.978 102.643C54.978 96.8154 56.9677 90.8811 57.7817 85.1161C58.4978 80.0418 58.7227 74.9517 59.1754 69.8555C60.2034 58.279 59.315 46.3615 57.8723 34.8678C57.1866 29.4091 57.5755 24.0791 57.5547 18.6018C57.5481 16.8586 58.2696 12.8409 57.35 11.294C55.5888 8.33109 54.5614 14.8099 54.4723 15.7758C53.9398 21.53 54.8949 27.2202 54.407 32.9497C53.8971 38.933 52.7905 44.7483 51.849 50.6624C50.8288 57.0659 49.1681 63.3249 47.5781 69.6056C45.9087 76.2 44.5048 82.9319 42.6487 89.4736C42.1481 87.4173 42.8504 84.8912 42.9892 82.797C43.1872 79.8001 43.574 76.8026 43.6074 73.7979C43.661 69.009 43.6983 64.1313 43.4274 59.3648C43.1604 54.6665 43.2411 49.7434 41.8002 45.217C41.1162 43.0687 40.1133 40.9727 39.1319 38.9489C37.9212 36.4535 37.4932 34.034 36.8228 31.3799C36.2485 29.1069 35.4081 26.8939 35.0255 24.5754C34.7877 23.1336 34.1239 18.8772 32.4732 22.102C31.5147 23.9737 31.9289 26.7485 31.9021 28.7593C31.8678 31.3372 32.2625 33.8437 32.323 36.4108C32.4407 41.4474 32.5252 46.478 32.9009 51.5061C33.2949 56.7814 32.9509 61.5092 31.9473 66.7071C30.8489 72.3969 30.5274 78.0991 29.9582 83.8584C29.6647 86.8322 29.1698 89.7894 28.9308 92.7673C28.8044 94.3443 29.4528 98.8665 28.3228 99.9896C28.2135 97.2582 27.4308 94.5243 26.8375 91.8627C26.1347 88.7096 25.8508 85.3948 25.3327 82.1965C24.4938 77.0148 22.8659 72.0664 21.7889 66.9428C19.5689 56.3811 17.7243 42.8068 8.42047 35.8936C7.20316 34.9891 5.86545 34.3214 4.54941 33.577C3.80438 33.1556 2.69757 32.0653 1.84509 31.8751C0.914642 31.6674 0.526642 31.8287 0.149445 32.9081C-0.376404 34.4129 0.585327 35.1158 1.48325 36.2088C4.59064 39.9908 5.91812 44.8389 7.83679 49.2744C12.2304 59.431 14.1744 70.1435 14.1967 81.1222C14.2084 86.8695 14.6049 92.4127 15.2177 98.1251C15.8772 104.273 16.7457 110.775 18.6135 116.689C16.7403 117.109 14.7078 116.483 14.1994 118.66C14.0745 119.195 14.3002 119.827 14.162 120.524C14.0278 121.2 13.7048 121.873 13.5137 122.539C13.1187 123.916 12.9098 125.274 12.7178 126.687C11.9752 132.15 10.7001 137.346 10.5643 142.885C10.4394 148.005 11.4418 153.192 12.3653 158.214C13.2957 163.272 15.9642 167.583 18.065 172.157C17.1608 172.157 16.2568 172.166 15.3526 172.176Z" fill="black"/>
<path fill-rule="evenodd" clip-rule="evenodd" d="M134.254 160.549C135.251 160.831 140.061 161.363 140.06 162.872C140.059 163.777 135.255 163.759 134.405 163.858C134.355 162.755 134.305 161.652 134.254 160.549ZM123.637 170.964C120.865 171.491 117.103 170.75 115.331 168.306C114.503 167.165 114.11 165.428 113.841 164.065C113.583 162.767 112.789 159.526 113.329 158.309C113.993 156.814 120.362 158.377 122.216 158.548C125.452 158.847 128.797 158.882 132.035 158.671C132.035 162.014 132.206 165.272 130.24 168.15C128.821 170.226 126.157 170.716 123.637 170.964ZM124.194 175.093C127.206 173.991 130.368 174.708 132.329 171.474C132.827 170.654 133.246 169.772 133.547 168.861C133.694 168.462 133.808 168.053 133.889 167.634C133.736 166.733 134.066 166.479 134.88 166.872C136.476 166.561 138.227 167.657 139.908 167.334C143.986 166.551 143.245 160.709 140.509 158.687C139.968 158.287 139.428 158.176 138.809 157.979C137.445 157.544 136.706 158.029 135.459 157.906C134.45 157.806 134.173 156.749 133.089 156.283C132.38 155.979 131.395 156.002 130.649 155.971C126.745 155.811 122.83 155.812 118.901 155.558C117.069 155.439 115.09 155.73 113.295 155.417C112.455 155.27 112.576 154.71 111.78 155.201C110.956 155.709 111.312 157.588 111.353 158.337C111.594 162.67 111.852 167.316 114.173 171.104C116.296 174.57 120.474 174.924 124.194 175.093Z" fill="black"/>
<path fill-rule="evenodd" clip-rule="evenodd" d="M283.247 176.287C282.278 176.277 281.309 176.266 280.344 176.256C281.314 176.267 282.281 176.277 283.247 176.287Z" fill="black"/>
<path fill-rule="evenodd" clip-rule="evenodd" d="M14.1908 83.9124C14.1926 82.9816 14.1947 82.0509 14.1968 81.1219C14.195 82.0533 14.1929 82.9828 14.1908 83.9124Z" fill="black"/>
<path fill-rule="evenodd" clip-rule="evenodd" d="M260.671 87.7346C260.674 88.6413 260.677 89.5479 260.68 90.4525C260.677 89.5452 260.674 88.6398 260.671 87.7346Z" fill="black"/>
<path fill-rule="evenodd" clip-rule="evenodd" d="M180.128 175.259C179.357 175.26 178.586 175.261 177.819 175.263C178.591 175.263 179.359 175.261 180.128 175.259Z" fill="black"/>
<path fill-rule="evenodd" clip-rule="evenodd" d="M226.935 175.074C226.164 175.077 225.394 175.079 224.626 175.082C225.398 175.08 226.167 175.077 226.935 175.074Z" fill="black"/>
<path fill-rule="evenodd" clip-rule="evenodd" d="M58.3934 137.42C58.4271 138.032 58.4614 138.644 58.4951 139.254C58.4611 138.642 58.4271 138.031 58.3934 137.42Z" fill="black"/>
<path fill-rule="evenodd" clip-rule="evenodd" d="M15.3525 172.175C15.9482 172.169 16.5439 172.163 17.1396 172.157C16.5412 171.907 15.9455 171.918 15.3525 172.175Z" fill="black"/>
<path fill-rule="evenodd" clip-rule="evenodd" d="M68.2427 174.885C67.8149 174.879 67.3875 174.872 66.964 174.865C67.3926 174.871 67.8176 174.878 68.2427 174.885Z" fill="black"/>
<path fill-rule="evenodd" clip-rule="evenodd" d="M14.4229 91.4639C14.4123 91.0013 14.4018 90.5389 14.3912 90.0781C14.4018 90.541 14.4123 91.0025 14.4229 91.4639Z" fill="black"/>
<path fill-rule="evenodd" clip-rule="evenodd" d="M54.4067 32.9497C54.442 32.4726 54.4772 31.9958 54.5127 31.5199C54.4772 31.9973 54.442 32.4735 54.4067 32.9497Z" fill="black"/>
<path fill-rule="evenodd" clip-rule="evenodd" d="M14.2114 85.7344C14.2057 85.2561 14.2 84.7781 14.1943 84.3016C14.2 84.7802 14.2057 85.2573 14.2114 85.7344Z" fill="black"/>
<path fill-rule="evenodd" clip-rule="evenodd" d="M148.671 174.292C148.291 174.298 147.911 174.303 147.534 174.308C147.914 174.302 148.293 174.297 148.671 174.292Z" fill="black"/>
<path fill-rule="evenodd" clip-rule="evenodd" d="M50.7485 175.072C50.3771 175.079 50.0053 175.087 49.6372 175.094C50.0101 175.087 50.3792 175.079 50.7485 175.072Z" fill="black"/>
<path fill-rule="evenodd" clip-rule="evenodd" d="M10.6072 141.446C10.634 141.026 10.6608 140.607 10.687 140.188C10.6602 140.607 10.6337 141.026 10.6072 141.446Z" fill="black"/>
<path fill-rule="evenodd" clip-rule="evenodd" d="M17.2783 175.48C16.9758 175.478 16.6733 175.476 16.3744 175.475C16.6778 175.478 16.9782 175.479 17.2783 175.48Z" fill="black"/>
<path fill-rule="evenodd" clip-rule="evenodd" d="M58.4927 175.091C58.1932 175.084 57.8937 175.076 57.5972 175.069C57.8979 175.077 58.1956 175.084 58.4927 175.091Z" fill="black"/>
<path fill-rule="evenodd" clip-rule="evenodd" d="M125.827 174.862C125.497 174.86 125.167 174.859 124.841 174.856C125.171 174.858 125.499 174.86 125.827 174.862Z" fill="black"/>
<path fill-rule="evenodd" clip-rule="evenodd" d="M201.866 174.861C201.553 174.863 201.239 174.866 200.929 174.868C201.244 174.866 201.555 174.864 201.866 174.861Z" fill="black"/>
<path fill-rule="evenodd" clip-rule="evenodd" d="M220.364 174.912C220.044 174.894 219.725 174.876 219.408 174.858C219.729 174.876 220.046 174.894 220.364 174.912Z" fill="black"/>
<path fill-rule="evenodd" clip-rule="evenodd" d="M131.803 53.1151C132.279 53.0742 132.754 53.0332 133.23 52.992C132.754 53.0254 132.25 52.7437 131.803 53.1151Z" fill="black"/>
<path fill-rule="evenodd" clip-rule="evenodd" d="M10.5618 172.356C11.0308 172.309 11.4998 172.261 11.9688 172.214C11.4995 172.261 11.0308 172.309 10.5618 172.356Z" fill="black"/>
<path fill-rule="evenodd" clip-rule="evenodd" d="M43.2741 56.0027C43.3054 56.4136 43.3373 56.8248 43.3687 57.2345C43.337 56.823 43.3054 56.4127 43.2741 56.0027Z" fill="black"/>
<path fill-rule="evenodd" clip-rule="evenodd" d="M14.0938 73.1341C14.0618 72.7446 14.0299 72.3551 13.998 71.9671C14.0299 72.3572 14.0621 72.7455 14.0938 73.1341Z" fill="black"/>
<path fill-rule="evenodd" clip-rule="evenodd" d="M43.4604 62.3765C43.4941 62.7867 43.5281 63.1967 43.5615 63.6055C43.5278 63.1949 43.4941 62.7855 43.4604 62.3765Z" fill="black"/>
<path fill-rule="evenodd" clip-rule="evenodd" d="M14.2925 88.8586C14.2956 88.4622 14.2986 88.0658 14.3013 87.6705C14.0454 88.0658 14.0556 88.4613 14.2925 88.8586Z" fill="black"/>
<path fill-rule="evenodd" clip-rule="evenodd" d="M58.387 145.79C58.3906 146.188 58.3939 146.585 58.3981 146.981C58.6606 146.58 58.6082 146.184 58.387 145.79Z" fill="black"/>
<path fill-rule="evenodd" clip-rule="evenodd" d="M28.4948 99.8183C28.5405 99.4161 28.5866 99.0137 28.6323 98.6127C28.5863 99.0155 28.5405 99.417 28.4948 99.8183Z" fill="black"/>
<path fill-rule="evenodd" clip-rule="evenodd" d="M276.01 62.9048C276.321 63.3157 276.745 63.0342 277.114 63.0842C276.746 63.0243 276.378 62.9647 276.01 62.9048Z" fill="black"/>
<path fill-rule="evenodd" clip-rule="evenodd" d="M122.253 155.843C122.646 155.844 123.039 155.844 123.432 155.845C123.039 155.844 122.646 155.843 122.253 155.843Z" fill="black"/>
<path fill-rule="evenodd" clip-rule="evenodd" d="M59.4922 64.5931C59.4555 64.9273 59.419 65.2614 59.3823 65.5943C59.419 65.2596 59.4555 64.9264 59.4922 64.5931Z" fill="black"/>
<path fill-rule="evenodd" clip-rule="evenodd" d="M253.632 31.4088C254.027 31.4167 254.421 31.4245 254.816 31.4323C254.426 31.2023 254.032 31.1358 253.632 31.4088Z" fill="black"/>
<path fill-rule="evenodd" clip-rule="evenodd" d="M43.4704 68.1562C43.496 68.5066 43.5216 68.8567 43.5469 69.2056C43.5213 68.8552 43.496 68.5057 43.4704 68.1562Z" fill="black"/>
<path fill-rule="evenodd" clip-rule="evenodd" d="M54.3008 25.1465C54.2701 24.8271 54.2397 24.5077 54.2093 24.1901C54.24 24.5101 54.2701 24.8283 54.3008 25.1465Z" fill="black"/>
<path fill-rule="evenodd" clip-rule="evenodd" d="M57.4043 24.1459C57.4353 24.4923 57.4664 24.8391 57.4971 25.1844C57.4661 24.8373 57.4353 24.4914 57.4043 24.1459Z" fill="black"/>
<path fill-rule="evenodd" clip-rule="evenodd" d="M228.951 1.00018C229.353 1.04895 229.755 1.09771 230.156 1.14618C229.754 1.09741 229.353 1.04895 228.951 1.00018Z" fill="black"/>
<path fill-rule="evenodd" clip-rule="evenodd" d="M257.977 31.6846C258.389 31.7267 258.801 31.7689 259.213 31.811C258.801 31.7689 258.389 31.7267 257.977 31.6846Z" fill="black"/>
<path fill-rule="evenodd" clip-rule="evenodd" d="M31.9937 32.7002C31.9684 32.3778 31.9434 32.0551 31.9184 31.7346C31.9434 32.0572 31.9687 32.3787 31.9937 32.7002Z" fill="black"/>
<path fill-rule="evenodd" clip-rule="evenodd" d="M271.512 85.9066C271.274 85.9102 271.037 85.9135 270.803 85.9171C271.042 85.9135 271.277 85.9102 271.512 85.9066Z" fill="black"/>
<path fill-rule="evenodd" clip-rule="evenodd" d="M57.392 125.697C57.4158 126.054 57.4396 126.41 57.4634 126.766C57.4393 126.409 57.4155 126.053 57.392 125.697Z" fill="black"/>
<path fill-rule="evenodd" clip-rule="evenodd" d="M33.1645 56.2216C33.1741 55.8775 33.1834 55.5338 33.1934 55.1906C33.1831 55.535 33.1738 55.8781 33.1645 56.2216Z" fill="black"/>
<path fill-rule="evenodd" clip-rule="evenodd" d="M218.835 0.18611C219.202 0.18611 219.568 0.186411 219.934 0.186411C219.567 -0.0652385 219.201 -0.058917 218.835 0.18611Z" fill="black"/>
<path fill-rule="evenodd" clip-rule="evenodd" d="M121.032 81.1665C121.433 81.1767 121.834 81.1869 122.235 81.1972C121.841 80.9184 121.439 80.9115 121.032 81.1665Z" fill="black"/>
<path fill-rule="evenodd" clip-rule="evenodd" d="M85.9663 174.278C85.7285 174.283 85.4904 174.288 85.2556 174.294C85.4946 174.289 85.7306 174.283 85.9663 174.278Z" fill="black"/>
<path fill-rule="evenodd" clip-rule="evenodd" d="M77.0093 174.696C76.7718 174.688 76.5343 174.679 76.3001 174.671C76.5385 174.68 76.7739 174.688 77.0093 174.696Z" fill="black"/>
<path fill-rule="evenodd" clip-rule="evenodd" d="M217.191 174.861C216.943 174.868 216.695 174.874 216.451 174.88C216.7 174.874 216.945 174.868 217.191 174.861Z" fill="black"/>
<path fill-rule="evenodd" clip-rule="evenodd" d="M10.813 137.465C10.8482 137.125 10.8834 136.784 10.9189 136.445C10.8834 136.786 10.8482 137.125 10.813 137.465Z" fill="black"/>
<path fill-rule="evenodd" clip-rule="evenodd" d="M43.167 80.1216C43.1387 80.4458 43.1107 80.77 43.083 81.0921C43.111 80.7676 43.139 80.4446 43.167 80.1216Z" fill="black"/>
<path fill-rule="evenodd" clip-rule="evenodd" d="M30.7158 74.5555C30.7543 74.2118 30.7928 73.868 30.8311 73.5255C30.7925 73.8695 30.7543 74.2124 30.7158 74.5555Z" fill="black"/>
<path fill-rule="evenodd" clip-rule="evenodd" d="M215.181 175.066C214.931 175.062 214.681 175.058 214.434 175.055C214.685 175.059 214.933 175.063 215.181 175.066Z" fill="black"/>
<path fill-rule="evenodd" clip-rule="evenodd" d="M124.194 175.093C123.951 175.082 123.708 175.072 123.468 175.061C123.712 175.072 123.953 175.083 124.194 175.093Z" fill="black"/>
<path fill-rule="evenodd" clip-rule="evenodd" d="M32.7484 49.4541C32.7596 49.1059 32.7704 48.7576 32.7812 48.4099C32.7701 48.7585 32.7593 49.1062 32.7484 49.4541Z" fill="black"/>
<path fill-rule="evenodd" clip-rule="evenodd" d="M238.872 175.294C238.628 175.292 238.385 175.29 238.144 175.288C238.389 175.291 238.63 175.292 238.872 175.294Z" fill="black"/>
<path fill-rule="evenodd" clip-rule="evenodd" d="M32.8501 175.29C32.5997 175.293 32.3489 175.295 32.1015 175.298C32.3534 175.296 32.6018 175.293 32.8501 175.29Z" fill="black"/>
<path fill-rule="evenodd" clip-rule="evenodd" d="M27.4395 175.261C27.1974 175.278 26.9557 175.295 26.7167 175.312C26.9596 175.295 27.1995 175.278 27.4395 175.261Z" fill="black"/>
<path fill-rule="evenodd" clip-rule="evenodd" d="M25.2539 175.256C25.0077 175.263 24.7611 175.271 24.5179 175.276C24.7651 175.269 25.0095 175.263 25.2539 175.256Z" fill="black"/>
<path fill-rule="evenodd" clip-rule="evenodd" d="M14.0334 75.9364C14.0496 75.5938 14.0656 75.251 14.0815 74.9093C14.0653 75.2525 14.0496 75.5944 14.0334 75.9364Z" fill="black"/>
<path fill-rule="evenodd" clip-rule="evenodd" d="M179.392 170.766C178.642 170.727 177.893 170.688 177.143 170.649C177.893 170.688 178.642 170.727 179.392 170.766Z" fill="black"/>
<path fill-rule="evenodd" clip-rule="evenodd" d="M224.601 46.2065C223.951 46.2631 223.3 46.3197 222.65 46.3757C223.301 46.3194 223.951 46.2628 224.601 46.2065Z" fill="black"/>
<path fill-rule="evenodd" clip-rule="evenodd" d="M40.9365 74.4875C40.9164 75.1082 40.8956 75.7289 40.8754 76.3478C40.8959 75.7268 40.9164 75.1073 40.9365 74.4875Z" fill="black"/>
<path fill-rule="evenodd" clip-rule="evenodd" d="M27.5122 171.827C26.8331 171.869 26.1543 171.91 25.4752 171.951C26.1585 171.982 26.8521 172.177 27.5122 171.827Z" fill="black"/>
<path fill-rule="evenodd" clip-rule="evenodd" d="M31.5308 98.4078C31.5256 97.8157 31.5205 97.2236 31.5157 96.633C31.5208 97.2254 31.5256 97.8166 31.5308 98.4078Z" fill="black"/>
<path fill-rule="evenodd" clip-rule="evenodd" d="M33.2686 117.011C32.6728 117.018 32.0765 117.027 31.4811 117.034C32.0771 117.026 32.6728 117.018 33.2686 117.011Z" fill="black"/>
<path fill-rule="evenodd" clip-rule="evenodd" d="M183.26 106.601C183.275 107.053 183.29 107.504 183.304 107.953C183.289 107.501 183.275 107.051 183.26 106.601Z" fill="black"/>
<path fill-rule="evenodd" clip-rule="evenodd" d="M23.3523 87.4944C23.3766 87.9436 23.401 88.3924 23.4248 88.8391C23.4001 88.3897 23.376 87.9421 23.3523 87.4944Z" fill="black"/>
<path fill-rule="evenodd" clip-rule="evenodd" d="M36.064 169.829C35.6305 169.8 35.197 169.771 34.7645 169.743C35.0905 170.004 35.4183 170.025 36.064 169.829Z" fill="black"/>
<path fill-rule="evenodd" clip-rule="evenodd" d="M38.9648 111.132C38.935 111.616 38.9052 112.1 38.8757 112.582C38.9055 112.098 38.935 111.615 38.9648 111.132Z" fill="black"/>
<path fill-rule="evenodd" clip-rule="evenodd" d="M201.037 34.7327C201.032 34.2652 201.028 33.7977 201.023 33.332C201.027 33.8001 201.032 34.2664 201.037 34.7327Z" fill="black"/>
<path fill-rule="evenodd" clip-rule="evenodd" d="M38.4404 117.108L36.8249 117.073C37.358 117.331 37.8965 117.34 38.4404 117.108Z" fill="black"/>
<path fill-rule="evenodd" clip-rule="evenodd" d="M23.5355 120.558C23.9166 120.562 24.2974 120.565 24.6758 120.569C24.2938 120.566 23.9145 120.562 23.5355 120.558Z" fill="black"/>
<path fill-rule="evenodd" clip-rule="evenodd" d="M163.048 170.015C162.52 170.022 161.993 170.029 161.466 170.036C161.997 170.302 162.525 170.34 163.048 170.015Z" fill="black"/>
<path fill-rule="evenodd" clip-rule="evenodd" d="M40.751 78.4739C40.7248 78.9597 40.6986 79.4456 40.6724 79.9299C40.6986 79.4435 40.7248 78.9588 40.751 78.4739Z" fill="black"/>
<path fill-rule="evenodd" clip-rule="evenodd" d="M211.59 47.347C211.139 47.1246 210.684 47.0873 210.224 47.3229C210.68 47.3311 211.135 47.3392 211.59 47.347Z" fill="black"/>
<path fill-rule="evenodd" clip-rule="evenodd" d="M55.5107 84.0839C55.4734 84.4936 55.4361 84.9036 55.3988 85.3121C55.4364 84.9018 55.4734 84.4927 55.5107 84.0839Z" fill="black"/>
<path fill-rule="evenodd" clip-rule="evenodd" d="M17.394 74.5215C17.6258 74.1206 17.6177 73.7217 17.3826 73.3265C17.3865 73.7253 17.3901 74.1236 17.394 74.5215Z" fill="black"/>
<path fill-rule="evenodd" clip-rule="evenodd" d="M40.6772 60.6022C40.6772 61.0077 40.6769 61.4135 40.6769 61.8177C40.6772 61.4114 40.6772 61.0068 40.6772 60.6022Z" fill="black"/>
<path fill-rule="evenodd" clip-rule="evenodd" d="M24.5024 116.817C24.038 116.675 23.5735 116.473 23.1111 116.822C23.575 116.82 24.0386 116.819 24.5024 116.817Z" fill="black"/>
<path fill-rule="evenodd" clip-rule="evenodd" d="M238.66 170.584C238.232 170.396 237.805 170.297 237.383 170.598C237.809 170.593 238.235 170.588 238.66 170.584Z" fill="black"/>
<path fill-rule="evenodd" clip-rule="evenodd" d="M151.105 169.98C150.648 169.78 150.191 169.67 149.739 169.994C150.195 169.989 150.65 169.985 151.105 169.98Z" fill="black"/>
<path fill-rule="evenodd" clip-rule="evenodd" d="M252.996 110.762C252.962 111.176 252.927 111.589 252.893 112.001C252.928 111.587 252.962 111.175 252.996 110.762Z" fill="black"/>
<path fill-rule="evenodd" clip-rule="evenodd" d="M146.73 86.9568C146.28 86.7931 145.831 86.7076 145.389 86.9812C145.836 86.9728 146.283 86.9649 146.73 86.9568Z" fill="black"/>
<path fill-rule="evenodd" clip-rule="evenodd" d="M40.7578 99.2594C40.7328 99.6634 40.7078 100.067 40.6832 100.47C40.7081 100.066 40.7331 99.6628 40.7578 99.2594Z" fill="black"/>
<path fill-rule="evenodd" clip-rule="evenodd" d="M253.287 62.8087C253.325 63.1341 253.362 63.4598 253.399 63.7834C253.362 63.4574 253.325 63.1332 253.287 62.8087Z" fill="black"/>
<path fill-rule="evenodd" clip-rule="evenodd" d="M279.389 157.175C279.412 157.492 279.435 157.808 279.458 158.123C279.434 157.806 279.412 157.49 279.389 157.175Z" fill="black"/>
<path fill-rule="evenodd" clip-rule="evenodd" d="M31.3309 101.397C31.3562 101.07 31.3815 100.742 31.4067 100.416C31.3815 100.744 31.3562 101.071 31.3309 101.397Z" fill="black"/>
<path fill-rule="evenodd" clip-rule="evenodd" d="M183.412 109.388C183.337 109.627 183.262 109.865 183.187 110.104C183.688 110.225 183.763 109.986 183.412 109.388Z" fill="black"/>
<path fill-rule="evenodd" clip-rule="evenodd" d="M153.325 86.418C152.918 86.4162 152.51 86.4147 152.102 86.4129C152.509 86.6062 152.917 86.7389 153.325 86.418Z" fill="black"/>
<path fill-rule="evenodd" clip-rule="evenodd" d="M252.768 112.719C252.754 113.08 252.74 113.442 252.727 113.802C252.741 113.44 252.754 113.08 252.768 112.719Z" fill="black"/>
<path fill-rule="evenodd" clip-rule="evenodd" d="M54.5215 116.528C54.507 116.86 54.4923 117.193 54.4775 117.524C54.4917 117.19 54.5067 116.859 54.5215 116.528Z" fill="black"/>
<path fill-rule="evenodd" clip-rule="evenodd" d="M256.808 171.384C256.421 171.128 256.033 171.15 255.645 171.38C256.032 171.382 256.42 171.383 256.808 171.384Z" fill="black"/>
<path fill-rule="evenodd" clip-rule="evenodd" d="M246.622 58.1619C246.601 58.5015 246.58 58.8413 246.559 59.1788C246.579 58.8386 246.601 58.5003 246.622 58.1619Z" fill="black"/>
<path fill-rule="evenodd" clip-rule="evenodd" d="M258.82 171.419C258.418 171.421 258.016 171.423 257.614 171.424C258.018 171.699 258.419 171.712 258.82 171.419Z" fill="black"/>
<path fill-rule="evenodd" clip-rule="evenodd" d="M36.1323 52.8318C36.129 52.4869 36.126 52.1422 36.123 51.7982C36.1263 52.1434 36.1293 52.4875 36.1323 52.8318Z" fill="black"/>
<path fill-rule="evenodd" clip-rule="evenodd" d="M220.76 46.7995C220.376 46.8498 219.991 46.9 219.606 46.95C219.991 46.8997 220.376 46.8498 220.76 46.7995Z" fill="black"/>
<path fill-rule="evenodd" clip-rule="evenodd" d="M254.708 76.5697C254.702 76.8918 254.697 77.2142 254.691 77.5348C254.696 77.2121 254.702 76.8909 254.708 76.5697Z" fill="black"/>
<path fill-rule="evenodd" clip-rule="evenodd" d="M33.5422 76.5233C33.5633 76.1952 33.5844 75.8671 33.6055 75.5405C33.5844 75.8692 33.563 76.1964 33.5422 76.5233Z" fill="black"/>
<path fill-rule="evenodd" clip-rule="evenodd" d="M123.267 171.035C122.792 171.078 122.317 171.121 121.843 171.163C122.318 171.12 122.792 171.078 123.267 171.035Z" fill="black"/>
<path fill-rule="evenodd" clip-rule="evenodd" d="M124.853 158.746C125.11 158.75 125.366 158.754 125.62 158.76C125.363 158.756 125.108 158.751 124.853 158.746Z" fill="black"/>
<path fill-rule="evenodd" clip-rule="evenodd" d="M124.831 170.847C124.433 170.886 124.035 170.925 123.637 170.964C124.035 170.925 124.433 170.886 124.831 170.847Z" fill="black"/>
<path fill-rule="evenodd" clip-rule="evenodd" d="M196.479 144.035C195.961 146.963 200.51 149.825 200.871 145.664C201.003 144.143 199.985 143.073 198.846 142.143C197.229 140.823 196.325 142.087 196.479 144.035Z" fill="black"/>
<path fill-rule="evenodd" clip-rule="evenodd" d="M246.621 108.324C245.549 108.762 237.362 111.43 241.614 112.772C242.74 113.127 244.442 113.18 245.418 112.555C246.592 111.801 247.776 109.579 246.621 108.324Z" fill="black"/>
<path fill-rule="evenodd" clip-rule="evenodd" d="M244.606 68.6849C241.827 68.3622 239.266 72.9265 242.692 72.7784C245.186 72.6703 248.54 68.6849 244.606 68.6849Z" fill="black"/>
<path fill-rule="evenodd" clip-rule="evenodd" d="M234.664 79.8763C232.344 81.9009 236.645 86.4321 238.353 84.6784C239.225 83.7826 238.42 81.8528 237.701 81.1032C236.962 80.3341 235.648 80.1896 234.664 79.8763Z" fill="black"/>
<path fill-rule="evenodd" clip-rule="evenodd" d="M227.756 132.364C229.126 132.582 235.151 134.55 233.894 130.974C233.415 129.611 232.078 130.015 230.857 130.078C228.887 130.179 227.756 130.084 227.756 132.364Z" fill="black"/>
<path fill-rule="evenodd" clip-rule="evenodd" d="M231.725 141.574C229.674 142.671 232.672 148.811 234.371 147.505C236.73 145.692 233.504 142.126 231.725 141.574Z" fill="black"/>
<path fill-rule="evenodd" clip-rule="evenodd" d="M222.78 136.638C221.783 136.231 217.082 140.753 218.871 142.011C219.788 142.656 221.526 141.55 222.079 140.884C223.116 139.634 223.21 138.092 222.78 136.638Z" fill="black"/>
<path fill-rule="evenodd" clip-rule="evenodd" d="M249.902 99.6781C248.883 99.8455 247.123 99.8984 247.057 101.331C247 102.59 248.578 102.997 249.689 103.096C250.842 103.198 252.368 102.873 252.39 101.424C252.413 99.8599 249.939 99.9541 249.902 99.6781Z" fill="black"/>
<path fill-rule="evenodd" clip-rule="evenodd" d="M224.768 162.004C223.683 162.663 218.62 165.036 220.79 166.75C221.602 167.391 224.064 166.066 224.619 165.393C225.28 164.589 225.926 162.706 224.768 162.004Z" fill="black"/>
<path fill-rule="evenodd" clip-rule="evenodd" d="M210.693 144.788C210.85 142.169 206.432 141.126 207.348 144.844C207.606 145.892 207.856 147.483 209.152 147.544C210.684 147.615 210.739 145.803 210.693 144.788Z" fill="black"/>
<path fill-rule="evenodd" clip-rule="evenodd" d="M224.342 99.247C224.311 101.234 228.118 102.986 228.147 99.8367C228.174 97.0228 224.2 96.1992 224.342 99.247Z" fill="black"/>
<path fill-rule="evenodd" clip-rule="evenodd" d="M226.856 88.8999C225.918 89.2021 224.672 89.3577 224.589 90.5495C224.501 91.8107 225.673 92.3721 226.727 92.3014C227.592 92.2433 228.871 91.6033 229.028 90.6654C229.258 89.2885 227.915 89.1985 226.856 88.8999Z" fill="black"/>
<path fill-rule="evenodd" clip-rule="evenodd" d="M244.297 125.273C244.313 123.633 241.028 121.663 240.423 123.565C240.229 124.174 241.778 126.903 242.293 127.108C243.656 127.648 243.846 126.388 244.297 125.273Z" fill="black"/>
<path fill-rule="evenodd" clip-rule="evenodd" d="M217.376 152.558C218.486 153.551 221.816 156.343 221.567 152.595C221.408 150.202 217.083 150.327 217.376 152.558Z" fill="black"/>
<path fill-rule="evenodd" clip-rule="evenodd" d="M163.12 163.267C162.756 161.691 157.546 164.425 159.284 166.415C159.868 167.083 161.394 166.478 161.98 166.082C163.141 165.299 163.167 164.575 163.12 163.267Z" fill="black"/>
<path fill-rule="evenodd" clip-rule="evenodd" d="M192.148 129.542C191.945 128.839 191.719 127.597 191.049 127.149C189.837 126.338 188.781 127.561 188.781 128.851C188.781 131.256 191.518 132.014 192.148 129.542Z" fill="black"/>
<path fill-rule="evenodd" clip-rule="evenodd" d="M205.061 157.662C203.708 157.972 200.696 161.261 202.443 162.602C204.124 163.893 206.36 158.644 205.061 157.662Z" fill="black"/>
<path fill-rule="evenodd" clip-rule="evenodd" d="M203.773 132.772C202.034 132.91 199.644 135.727 202.347 136.175C204.462 136.525 206.921 133.462 203.773 132.772Z" fill="black"/>
<path fill-rule="evenodd" clip-rule="evenodd" d="M188.027 145.733C187.591 144.263 183.277 145.838 183.52 147.455C183.648 148.315 185.412 148.517 186.339 148.29C187.704 147.955 188.058 147.06 188.027 145.733Z" fill="black"/>
<path fill-rule="evenodd" clip-rule="evenodd" d="M238.874 63.6738C238.842 61.7744 235.193 61.0002 234.925 62.9144C234.684 64.6437 238.919 66.4838 238.874 63.6738Z" fill="black"/>
<path fill-rule="evenodd" clip-rule="evenodd" d="M189.233 165.304C188.97 164.349 188.856 163.2 187.663 163.074C186.297 162.93 186.338 163.977 186.498 165.063C186.935 168.016 188.604 168.163 189.233 165.304Z" fill="black"/>
<path fill-rule="evenodd" clip-rule="evenodd" d="M246.87 86.2726C248.773 86.7019 252.258 83.0373 250.128 82.251C248.627 81.6963 246.87 85.167 246.87 86.2726Z" fill="black"/>
<path fill-rule="evenodd" clip-rule="evenodd" d="M222.602 114.738C223.57 115.194 223.793 115.471 224.537 114.722C225.185 114.071 225.156 112.255 224.6 111.577C222.471 108.981 222.521 113.687 222.602 114.738Z" fill="black"/>
<path fill-rule="evenodd" clip-rule="evenodd" d="M214.701 109.473C213.691 109.601 210.691 112.448 212.253 113.579C214.168 114.965 215.251 110.623 214.701 109.473Z" fill="black"/>
<path fill-rule="evenodd" clip-rule="evenodd" d="M192.851 110.222C193.585 113.049 195.417 111.147 195.314 109.008C195.147 105.582 193.248 108.566 192.851 110.222Z" fill="black"/>
<path fill-rule="evenodd" clip-rule="evenodd" d="M181.71 155.623C180.468 156.137 178.782 160.885 180.556 161.14C182.549 161.425 181.885 156.612 181.71 155.623Z" fill="black"/>
<path fill-rule="evenodd" clip-rule="evenodd" d="M197.22 152.956C195.799 152.477 195.278 155.474 196.104 156.031C197.921 157.256 197.538 153.664 197.22 152.956Z" fill="black"/>
<path fill-rule="evenodd" clip-rule="evenodd" d="M210.694 144.788C210.712 145.186 210.729 145.584 210.748 145.979C210.73 145.581 210.712 145.184 210.694 144.788Z" fill="black"/>
<path fill-rule="evenodd" clip-rule="evenodd" d="M163.12 163.267C163.134 163.675 163.149 164.083 163.165 164.489C163.15 164.08 163.135 163.674 163.12 163.267Z" fill="black"/>
<path fill-rule="evenodd" clip-rule="evenodd" d="M188.027 145.733C188.035 146.079 188.043 146.425 188.052 146.769C188.044 146.422 188.035 146.077 188.027 145.733Z" fill="black"/>
<path fill-rule="evenodd" clip-rule="evenodd" d="M30.8376 139.775C27.8913 139.681 24.6045 138.572 21.7093 138.925C20.9122 139.022 19.0775 139.223 20.3544 140.405C20.9652 140.97 23.8889 140.678 24.7739 140.865C30.1835 142.011 36.3242 142.749 41.871 142.654C44.4676 142.609 47.0834 142.401 49.6788 142.264C52.2724 142.127 52.5273 141.073 49.609 140.738C46.578 140.39 43.4679 140.519 40.4219 140.515C37.2197 140.511 34.0335 139.989 30.8376 139.775Z" fill="black"/>
<path fill-rule="evenodd" clip-rule="evenodd" d="M24.3693 132.677C24.6528 133.484 24.9018 135.337 25.9885 135.459C27.5104 135.629 27.7623 133.016 27.7063 132.06C27.6383 130.906 27.2232 128.99 25.7895 129.39C24.5785 129.727 24.4572 131.753 24.3693 132.677Z" fill="black"/>
<path fill-rule="evenodd" clip-rule="evenodd" d="M33.583 132.085C33.3606 131.221 33.2513 129.272 32.0286 129.205C30.6619 129.132 30.2715 131.163 30.2806 132.136C30.2896 133.06 30.6313 134.805 31.7194 135.018C33.1947 135.307 33.3265 133.073 33.583 132.085Z" fill="black"/>
<path fill-rule="evenodd" clip-rule="evenodd" d="M48.9277 133.636C49.3705 134.675 49.6634 136.107 51.0336 135.398C52.0932 134.85 52.241 132.641 52.0412 131.629C51.8341 130.581 51.3955 129.378 50.1911 129.85C48.8022 130.394 48.9425 132.492 48.9277 133.636Z" fill="black"/>
<path fill-rule="evenodd" clip-rule="evenodd" d="M37.3072 132.677C38.6133 136.636 40.9956 133.957 40.091 131.001C39.1452 127.912 37.4273 130.912 37.3072 132.677Z" fill="black"/>
<path fill-rule="evenodd" clip-rule="evenodd" d="M43.6715 132.873C44.0342 133.57 44.4201 135.074 45.3978 134.915C46.5965 134.721 46.635 132.414 46.5034 131.555C46.3888 130.803 46.051 129.55 45.0477 129.566C43.598 129.59 43.6953 131.97 43.6715 132.873Z" fill="black"/>
<path fill-rule="evenodd" clip-rule="evenodd" d="M17.6178 133.633C18.5901 135.814 19.9275 133.935 19.4994 132.386C18.8646 130.088 17.6729 132.124 17.6178 133.633Z" fill="black"/>
<path fill-rule="evenodd" clip-rule="evenodd" d="M41.4291 140.518C42.4908 140.514 43.5531 140.51 44.6147 140.506C43.5522 140.306 42.4896 140.228 41.4291 140.518Z" fill="black"/>
<path fill-rule="evenodd" clip-rule="evenodd" d="M20.3279 138.915C21.249 138.922 22.1698 138.927 23.0903 138.933C22.171 138.657 21.2502 138.651 20.3279 138.915Z" fill="black"/>
<path fill-rule="evenodd" clip-rule="evenodd" d="M48.9276 133.636C48.9342 133.107 48.9414 132.578 48.9478 132.05C48.6753 132.576 48.6943 133.105 48.9276 133.636Z" fill="black"/>
<path fill-rule="evenodd" clip-rule="evenodd" d="M43.1494 142.643C42.722 142.647 42.2945 142.65 41.8707 142.654C42.2993 142.65 42.7244 142.647 43.1494 142.643Z" fill="black"/>
<path fill-rule="evenodd" clip-rule="evenodd" d="M50.3276 142.264C49.8948 142.264 49.4616 142.264 49.0318 142.264C49.4664 142.264 49.8969 142.264 50.3276 142.264Z" fill="black"/>
<path fill-rule="evenodd" clip-rule="evenodd" d="M46.7782 140.564C47.3802 140.613 47.9823 140.662 48.584 140.712C47.982 140.662 47.3802 140.613 46.7782 140.564Z" fill="black"/>
<path fill-rule="evenodd" clip-rule="evenodd" d="M38.6387 140.511C39.2332 140.512 39.8274 140.514 40.4219 140.515C39.8277 140.264 39.2335 140.257 38.6387 140.511Z" fill="black"/>
<path fill-rule="evenodd" clip-rule="evenodd" d="M43.6713 132.873C43.6861 132.321 43.7005 131.77 43.7144 131.219C43.6996 131.771 43.6855 132.322 43.6713 132.873Z" fill="black"/>
<path fill-rule="evenodd" clip-rule="evenodd" d="M52.0409 131.629C52.0442 132.167 52.0475 132.705 52.0518 133.24C52.0484 132.702 52.0448 132.165 52.0409 131.629Z" fill="black"/>
<path fill-rule="evenodd" clip-rule="evenodd" d="M27.4598 139.575C27.9854 139.623 28.5107 139.67 29.0356 139.717C28.5101 139.67 27.9848 139.623 27.4598 139.575Z" fill="black"/>
<path fill-rule="evenodd" clip-rule="evenodd" d="M17.6176 133.633C17.6348 133.163 17.6516 132.693 17.6685 132.224C17.6513 132.694 17.6348 133.163 17.6176 133.633Z" fill="black"/>
<path fill-rule="evenodd" clip-rule="evenodd" d="M39.9736 142.658C39.6079 142.651 39.2422 142.645 38.88 142.638C39.247 142.645 39.6103 142.652 39.9736 142.658Z" fill="black"/>
<path fill-rule="evenodd" clip-rule="evenodd" d="M24.369 132.677C24.4012 132.339 24.4334 132.001 24.4653 131.664C24.4331 132.003 24.4009 132.34 24.369 132.677Z" fill="black"/>
<path fill-rule="evenodd" clip-rule="evenodd" d="M37.3077 132.677C37.3311 132.33 37.3549 131.983 37.3784 131.637C37.3546 131.984 37.3311 132.33 37.3077 132.677Z" fill="black"/>
<path fill-rule="evenodd" clip-rule="evenodd" d="M225.935 30.7737C227.374 30.3962 227.643 28.3746 227.412 27.1329C227.15 26.5345 226.888 25.9363 226.626 25.3379C226.728 25.1167 226.831 24.8954 226.933 24.6742C226.801 23.4418 227.138 22.9063 225.721 23.4054C223.09 24.3331 222.67 30.6786 225.935 30.7737Z" fill="black"/>
<path fill-rule="evenodd" clip-rule="evenodd" d="M204.641 26.865C203.455 26.7716 201.303 28.1518 202.483 29.4871C203.213 30.3143 205.622 29.923 206.604 30.0958C207.907 30.3248 209.267 30.6382 208.562 28.6864C208.008 27.1536 206.031 26.8249 204.641 26.865Z" fill="black"/>
<path fill-rule="evenodd" clip-rule="evenodd" d="M205.888 36.0454C207.092 35.08 206.554 30.6831 204.722 31.4742C202.838 32.2884 204.883 35.4108 205.888 36.0454Z" fill="black"/>
<path fill-rule="evenodd" clip-rule="evenodd" d="M227.412 27.1329C227.412 27.5955 227.413 28.0585 227.413 28.5191C227.664 28.0555 227.657 27.594 227.412 27.1329Z" fill="black"/>
<path fill-rule="evenodd" clip-rule="evenodd" d="M225.935 30.7737C225.69 30.7668 225.444 30.7596 225.202 30.7532C225.448 30.7611 225.692 30.7674 225.935 30.7737Z" fill="black"/>
<path fill-rule="evenodd" clip-rule="evenodd" d="M77.2988 157.401C77.4114 159.401 79.5591 157.923 79.4068 156.584C79.1302 154.156 77.7573 156.556 77.2988 157.401Z" fill="black"/>
</svg>
